<?xml version="1.0" standalone="no"?>
<!DOCTYPE svg PUBLIC "-//W3C//DTD SVG 20010904//EN"
 "http://www.w3.org/TR/2001/REC-SVG-20010904/DTD/svg10.dtd">
<svg version="1.0" xmlns="http://www.w3.org/2000/svg"
 width="500.000000pt" height="379.000000pt" viewBox="0 0 500.000000 379.000000"
 preserveAspectRatio="xMidYMid meet">

<g transform="translate(0.000000,379.000000) scale(0.100000,-0.100000)"
fill="#000000" stroke="none">
<path d="M0 1895 l0 -1895 2500 0 2500 0 0 1895 0 1895 -2500 0 -2500 0 0
-1895z m956 1364 c160 -52 329 -121 486 -200 133 -66 241 -128 246 -141 2 -4
8 -8 13 -8 9 0 128 -78 178 -117 151 -117 300 -271 388 -400 67 -97 156 -270
147 -284 -3 -5 0 -9 6 -9 7 0 10 -7 6 -15 -3 -8 -1 -15 5 -15 6 0 7 -4 4 -10
-3 -5 -1 -19 6 -31 6 -12 12 -31 14 -43 2 -11 8 -45 14 -75 6 -29 11 -69 11
-87 0 -24 4 -32 14 -28 8 3 15 28 19 67 14 150 104 371 219 539 73 107 218
262 327 351 235 189 570 365 962 504 88 31 117 37 191 37 86 1 88 0 120 -32
30 -29 33 -38 32 -90 -1 -60 -29 -148 -69 -218 -39 -67 -93 -108 -199 -149
l-97 -39 -45 24 c-24 14 -44 29 -44 34 0 5 -3 6 -7 3 -3 -4 -14 0 -23 8 -16
15 -18 9 -25 -87 -4 -57 -6 -168 -4 -248 6 -254 4 -291 -20 -368 -17 -56 -28
-75 -46 -84 -14 -6 -25 -14 -25 -18 0 -4 -6 -7 -12 -7 -7 0 -104 -49 -216
-109 -283 -152 -340 -180 -397 -200 -77 -26 -165 -72 -211 -110 -24 -19 -102
-66 -176 -105 -73 -39 -145 -82 -159 -96 l-27 -25 -7 41 c-4 23 -10 41 -14 41
-4 0 -7 8 -8 18 0 9 -6 41 -12 71 -6 29 -11 74 -11 98 0 74 -24 47 -31 -34 -7
-78 -34 -220 -49 -255 -8 -22 -9 -22 -9 5 -1 38 -20 53 -168 131 -72 38 -143
80 -157 93 -14 13 -26 21 -26 18 0 -7 -74 47 -78 58 -2 4 -8 5 -13 1 -5 -3 -9
0 -9 7 0 7 -3 10 -6 6 -4 -3 -21 1 -38 10 -17 10 -34 18 -38 19 -5 1 -10 3
-13 4 -3 1 -8 3 -12 4 -35 8 -90 35 -308 149 -137 73 -253 131 -257 129 -5 -1
-8 3 -8 10 0 6 -3 8 -7 5 -3 -4 -12 1 -20 11 -10 11 -12 12 -8 2 4 -8 -1 -6
-9 4 -9 11 -16 16 -16 12 0 -21 -39 45 -56 94 -11 30 -22 57 -25 60 -15 12
-18 106 -10 249 12 189 -6 451 -26 393 -3 -6 -9 -10 -14 -6 -5 3 -9 0 -9 -6 0
-6 -4 -9 -8 -6 -5 3 -19 -4 -30 -15 -12 -11 -22 -16 -22 -12 0 4 -5 2 -11 -4
-23 -23 -207 54 -267 111 -80 76 -139 250 -112 330 29 90 116 100 316 35z
m2718 -1999 c33 -64 86 -190 91 -220 2 -8 4 -15 5 -15 1 0 3 -7 5 -15 4 -16
12 -48 20 -80 13 -52 16 -68 19 -115 2 -27 7 -66 11 -86 4 -21 2 -63 -5 -94
-22 -107 -105 -165 -235 -165 -155 0 -485 143 -628 271 l-38 34 256 203 c250
199 256 205 297 279 44 80 75 116 91 106 6 -3 7 -1 3 5 -4 7 -4 17 0 24 10 16
66 -52 108 -132z m-2229 109 c-3 -3 15 -31 38 -62 23 -30 50 -69 59 -86 9 -17
130 -121 282 -242 146 -116 263 -215 261 -220 -3 -4 -46 -35 -96 -69 -230
-153 -528 -248 -665 -211 -52 14 -108 57 -128 99 -21 43 -21 176 -1 302 37
224 166 503 230 498 13 -1 22 -5 20 -9z"/>
</g>
</svg>
